<svg width="24" height="24" version="1.1" viewBox="0 0 540.83 402.46" xml:space="preserve" xmlns="http://www.w3.org/2000/svg"><g transform="translate(90.29 97.772)"><path d="m69.044 157.08s54.526 15.042 76.676 28.382c-6.5657-12.698-19.214-53.285 10.268-112.4l-4.6578-36.349c-57.927 33.365-81.473 61.29-82.287 120.37zm-114.84 18.964c-4.4167 6.9866-5.1445 13.525-0.82464 18.813l-34.492-7.8408zm101.33-22.351c8.7132 11.999 8.0625 28.473 16.532 43.397 4.7933 8.4463 18.119 13.723 31.256 12.916 8.2524-0.5068 21.85-5.5843 20.407-13.432-2.9147-15.854-17.406-22.127-28.415-30.74-14.329-4.2661-26.744-11.108-39.781-12.141zm21.311 111.85c15.935-1.9898 34.761-47.413 26.736-54.117m-41.976 49.338c15.935-1.9898 39.927-46.38 31.902-53.084m-41.718 49.726c15.935-1.9898 36.569-48.188 28.544-54.892m-47.659 47.013c15.935-1.9898 27.012-29.202 18.986-35.906m-32.806 29.319c10.665 0.54319 24.073-15.637 22.732-26.477m-29.706 8.2661c9.7065 1.0284 18.16-6.8325 21.182-11.366m-7.7495-5.9413c6.764 5.4151 14.539 11.586 23.765 9.2994 6.4039-1.5872 4.2792-10.158 4.5205-14.466m-14.53-51.147c17.981 2.0934 14.08 32.247 13.884 41.847m-28.867-42.622c17.981 2.0934 18.988 30.568 18.792 40.168m-32.225-38.877c17.981 2.0934 18.988 30.31 18.792 39.91m23.522-0.11679c0.84435 5.4706 1.3679 12.017-0.49447 14.443m-25.077-2.0222c9.5528 1.7471 18.526 1.7564 27.399 1.4612m-28.86-12.055c9.1377-1.5536 18.662-0.79038 28.129-0.36531m-59.426-38.413c17.981 2.0934 19.505 24.369 19.309 33.969m-32.945-29.253c10.691 7.6634 20.691 16.679 21.511 21.688 1.5641 9.5579-0.24177 17.055-3.2897 24.006 13.089 21 7.9117 20.395 9.8818 31.066 2.8728-0.8208 1.4216-15.837-1.9779-24.192 22.343 3.8069 28.364-24.163 8.3029-21.637-2.8993 0.36503-6.3435 1.367-10.362 3.194 1.5615-4.6826-0.20886-14.71-1.9298-14.956-3.0596-5.462-3.4697-11.107-22.137-19.17zm261.05 90.251c101.12-13.198 77.961 4.2093 204.83-20.571 1.5596 4.1812 1.5021 6.4611 0.90659 13.974-11.502 6.3307-101.89 26.093-161.8 27.508-2.0537 6.5807 121.51 18.427 121.51 18.427s0.99242 3.7817-4.0105 13.453c-76.828-3.7089-124.5-24.087-155.23-25.409-0.23996-9.8578-1.3932-18.072-6.1996-27.381zm-290.62-71.718c85.287-79.663 262.82 44.4 292.93 73.878 3.1019 10.33 3.1308 10.085 8.2661 24.282-202.82 29.044-298.1-79.561-298.1-79.561-4.9604-5.6516-5.537-12.034-3.0997-18.599zm199.94-141.04 205.1-127.61-13.949 25.315s-101.42 90.02-144.18 137.69c-27.85 80.733-43.986 112.74-50.357 114.57-20.655-35.723-12.038-68.989 7.7754-113.28-0.10399-12.314-4.3914-36.681-4.3914-36.681zm-146.26 115.29c5.9954-143.21 79.733-188.81 106.33-204.59 8.508 28.235-1.8718 74.05-2.9605 118.36-46.147 47.19-39.8 90.222-39.8 90.222-16.246-3.041-43.224-9.7106-63.572-3.9963z" fill="none" stroke="#ff9b00" stroke-width="4.765"/><g fill="#ff9b00"><g stroke-width=".26458"><path d="m5.1144 151.97c5.9954-143.21 79.733-188.81 106.33-204.59 8.508 28.235-1.8718 74.05-2.9605 118.36-46.147 47.19-39.8 90.222-39.8 90.222-16.246-3.041-43.224-9.7106-63.572-3.9963z"/><path d="m151.37 36.681 205.1-127.61-13.949 25.315s-101.42 90.02-144.18 137.69c-27.85 80.733-33.441 88.705-48.877 115.94-25.336-61.039-13.518-70.364 6.2958-114.66-0.10399-12.314-4.3914-36.681-4.3914-36.681z"/><path d="m243.33 251.08c101.12-13.198 76.683 2.5654 203.55-22.215 1.5596 4.1812 1.5021 6.4611 0.90659 13.974-11.502 6.3307-101.89 26.093-161.8 27.508-2.0537 6.5807 121.51 18.427 121.51 18.427s0.99242 3.7817-4.0105 13.453c-76.828-3.7089-123.22-22.443-153.96-23.765z"/></g><g stroke="#ff9b00" stroke-width="4.765"><path d="m-18.996 159.19c10.691 7.6634 20.691 16.679 21.511 21.688 1.5641 9.5579-0.24177 17.055-3.2897 24.006 13.089 21 7.9117 20.395 9.8818 31.066 2.8728-0.8208 1.4216-15.837-1.9779-24.192 22.343 3.8069 28.364-24.163 8.3029-21.637-2.8993 0.36503-6.3435 1.367-10.362 3.194 1.5615-4.6826-0.20886-14.71-1.9298-14.956-3.0596-5.462-3.4697-11.107-22.137-19.17z"/><path d="m55.538 153.7c8.7132 11.999 8.0625 28.473 16.532 43.397 4.7933 8.4463 18.119 13.723 31.256 12.916 8.2524-0.5068 21.85-5.5843 20.407-13.432-2.9147-15.854-17.406-22.127-28.415-30.74-14.329-4.2661-26.744-11.108-39.781-12.141z"/><path d="m-45.795 176.05c-4.4167 6.9866-5.1445 13.525-0.82464 18.813l-34.492-7.8408z"/></g></g></g></svg>
