<?xml version="1.0" encoding="UTF-8" standalone="no"?>
<!-- Created with Inkscape (http://www.inkscape.org/) -->

<svg
   width="540.82739mm"
   height="402.45517mm"
   viewBox="0 0 540.82739 402.45517"
   version="1.1"
   id="svg1"
   xml:space="preserve"
   sodipodi:docname="logo_oreneta.svg"
   inkscape:version="1.3 (0e150ed6c4, 2023-07-21)"
   xmlns:inkscape="http://www.inkscape.org/namespaces/inkscape"
   xmlns:sodipodi="http://sodipodi.sourceforge.net/DTD/sodipodi-0.dtd"
   xmlns="http://www.w3.org/2000/svg"
   xmlns:svg="http://www.w3.org/2000/svg"><sodipodi:namedview
     id="namedview1"
     pagecolor="#ffffff"
     bordercolor="#000000"
     borderopacity="0.25"
     inkscape:showpageshadow="2"
     inkscape:pageopacity="0.0"
     inkscape:pagecheckerboard="0"
     inkscape:deskcolor="#d1d1d1"
     inkscape:document-units="mm"
     inkscape:zoom="0.18106587"
     inkscape:cx="1308.9159"
     inkscape:cy="367.26966"
     inkscape:window-width="1920"
     inkscape:window-height="1009"
     inkscape:window-x="-8"
     inkscape:window-y="-8"
     inkscape:window-maximized="1"
     inkscape:current-layer="g1" /><defs
     id="defs1"><inkscape:path-effect
       effect="fillet_chamfer"
       id="path-effect148"
       is_visible="true"
       lpeversion="1"
       nodesatellites_param="F,0,0,1,0,0,0,1 @ F,0,0,1,0,0,0,1"
       radius="0"
       unit="px"
       method="auto"
       mode="F"
       chamfer_steps="1"
       flexible="false"
       use_knot_distance="true"
       apply_no_radius="true"
       apply_with_radius="true"
       only_selected="false"
       hide_knots="false" /><inkscape:path-effect
       effect="fillet_chamfer"
       id="path-effect146"
       is_visible="true"
       lpeversion="1"
       nodesatellites_param="F,0,0,1,0,0,0,1 @ F,0,0,1,0,0,0,1"
       radius="0"
       unit="px"
       method="auto"
       mode="F"
       chamfer_steps="1"
       flexible="false"
       use_knot_distance="true"
       apply_no_radius="true"
       apply_with_radius="true"
       only_selected="false"
       hide_knots="false" /><inkscape:path-effect
       effect="fillet_chamfer"
       id="path-effect144"
       is_visible="true"
       lpeversion="1"
       nodesatellites_param="F,0,0,1,0,0,0,1 @ F,0,0,1,0,0,0,1"
       radius="0"
       unit="px"
       method="auto"
       mode="F"
       chamfer_steps="1"
       flexible="false"
       use_knot_distance="true"
       apply_no_radius="true"
       apply_with_radius="true"
       only_selected="false"
       hide_knots="false" /><inkscape:path-effect
       effect="fillet_chamfer"
       id="path-effect142"
       is_visible="true"
       lpeversion="1"
       nodesatellites_param="F,0,0,1,0,0,0,1 @ F,0,0,1,0,0,0,1"
       radius="0"
       unit="px"
       method="auto"
       mode="F"
       chamfer_steps="1"
       flexible="false"
       use_knot_distance="true"
       apply_no_radius="true"
       apply_with_radius="true"
       only_selected="false"
       hide_knots="false" /><inkscape:path-effect
       effect="fillet_chamfer"
       id="path-effect17"
       is_visible="true"
       lpeversion="1"
       nodesatellites_param="F,0,0,1,0,0,0,1 @ F,0,0,1,0,0,0,1"
       radius="0"
       unit="px"
       method="auto"
       mode="F"
       chamfer_steps="1"
       flexible="false"
       use_knot_distance="true"
       apply_no_radius="true"
       apply_with_radius="true"
       only_selected="false"
       hide_knots="false" /><inkscape:path-effect
       effect="fillet_chamfer"
       id="path-effect15"
       is_visible="true"
       lpeversion="1"
       nodesatellites_param="F,0,0,1,0,0,0,1 @ F,0,0,1,0,0,0,1"
       radius="0"
       unit="px"
       method="auto"
       mode="F"
       chamfer_steps="1"
       flexible="false"
       use_knot_distance="true"
       apply_no_radius="true"
       apply_with_radius="true"
       only_selected="false"
       hide_knots="false" /><inkscape:path-effect
       effect="fillet_chamfer"
       id="path-effect13"
       is_visible="true"
       lpeversion="1"
       nodesatellites_param="F,0,0,1,0,0,0,1 @ F,0,0,1,0,0,0,1"
       radius="0"
       unit="px"
       method="auto"
       mode="F"
       chamfer_steps="1"
       flexible="false"
       use_knot_distance="true"
       apply_no_radius="true"
       apply_with_radius="true"
       only_selected="false"
       hide_knots="false" /><inkscape:path-effect
       effect="fillet_chamfer"
       id="path-effect8"
       is_visible="true"
       lpeversion="1"
       nodesatellites_param="F,0,0,1,0,0,0,1 @ F,0,0,1,0,0,0,1"
       radius="0"
       unit="px"
       method="auto"
       mode="F"
       chamfer_steps="1"
       flexible="false"
       use_knot_distance="true"
       apply_no_radius="true"
       apply_with_radius="true"
       only_selected="false"
       hide_knots="false" /></defs><g
     inkscape:label="Capa 1 copia"
     inkscape:groupmode="layer"
     id="g141"
     style="display:inline"
     transform="translate(90.289766,97.772249)"><g
       id="g1"><path
         id="path27"
         style="display:inline;opacity:1;fill:none;fill-opacity:1;stroke:#ff9b00;stroke-width:4.76499;stroke-dasharray:none;stroke-opacity:1"
         d="m 69.04428,157.08487 c 0,0 54.52616,15.04194 76.67646,28.38209 -6.56566,-12.69836 -19.21419,-53.2846 10.26819,-112.40423 L 151.33118,36.714021 C 93.404408,70.079226 69.858564,98.004162 69.04428,157.08487 Z m -114.839139,18.96381 c -4.416692,6.98663 -5.144458,13.52487 -0.824644,18.81273 l -34.491644,-7.8408 z m 101.332747,-22.3508 c 8.713186,11.99919 8.062497,28.47267 16.532209,43.39705 4.793326,8.44626 18.118855,13.72257 31.256203,12.91578 8.2524,-0.5068 21.84982,-5.58429 20.40695,-13.43242 -2.91471,-15.85375 -17.40629,-22.12736 -28.414736,-30.73957 -14.329485,-4.26614 -26.744463,-11.10801 -39.780626,-12.14084 z m 21.31105,111.85071 c 15.934774,-1.98985 34.761112,-47.4133 26.735682,-54.11714 m -41.976311,49.3383 C 77.543083,258.7799 101.53573,214.38972 93.510306,207.68588 M 51.79231,257.41165 C 67.727084,255.4218 88.361626,209.2234 80.336202,202.51956 m -47.659258,47.01346 c 15.934774,-1.98985 27.011633,-29.20204 18.986209,-35.90588 M 18.85705,242.94597 c 10.665296,0.54319 24.072565,-15.63748 22.731788,-26.47736 m -29.706313,8.2661 c 9.706467,1.02836 18.1599,-6.8325 21.181893,-11.36589 m -7.749474,-5.94127 c 6.764031,5.41509 14.538711,11.58611 23.765049,9.29937 6.403881,-1.5872 4.279219,-10.15829 4.520526,-14.46568 m -14.53026,-51.14652 c 17.980776,2.09344 14.08048,32.24721 13.884471,41.84716 M 24.087945,150.33977 c 17.980776,2.09344 18.988479,30.56816 18.79247,40.16811 m -32.22489,-38.87653 c 17.980776,2.09344 18.988479,30.30984 18.79247,39.90979 m 23.522485,-0.11679 c 0.844346,5.47065 1.36791,12.01729 -0.494474,14.44287 m -25.077481,-2.0222 c 9.55285,1.74711 18.526407,1.75635 27.398521,1.46125 M 25.937269,193.25092 c 9.137745,-1.5536 18.661628,-0.79038 28.129152,-0.36531 M -5.360052,154.47282 c 17.980776,2.09344 19.505111,24.36858 19.309102,33.96853 m -32.94536,-29.25323 c 10.6911881,7.66344 20.6913272,16.67882 21.5110866,21.68836 1.5640509,9.55789 -0.2417749,17.05499 -3.28972388,24.00559 13.08857728,20.99951 7.91169058,20.39528 9.88182668,31.06624 2.8727786,-0.8208 1.4215616,-15.83665 -1.9778865,-24.19175 22.3430621,3.80694 28.3642601,-24.16268 8.3029481,-21.63693 -2.899344,0.36503 -6.3434789,1.36703 -10.36187,3.19397 C 6.6315409,188.63102 4.8612111,178.60374 3.1403071,178.3579 0.08066725,172.89593 -0.32943813,167.25129 -18.99631,159.18812 Z M 242.05484,249.439 c 101.12115,-13.19786 77.96116,4.20934 204.83142,-20.57124 1.55956,4.18116 1.50211,6.46109 0.90659,13.97354 -11.50193,6.33068 -101.88797,26.09342 -161.8044,27.50785 -2.05369,6.58074 121.51128,18.42708 121.51128,18.42708 0,0 0.99242,3.78171 -4.01052,13.4532 -76.82828,-3.70887 -124.49638,-24.08702 -155.23479,-25.40896 -0.23996,-9.85779 -1.3932,-18.07166 -6.19958,-27.38147 z M -48.563363,177.72125 c 85.286513,-79.663019 262.820453,44.40031 292.930023,73.87831 3.10187,10.33035 3.13081,10.08473 8.26611,24.28168 -202.818841,29.04375 -298.096391,-79.56126 -298.096391,-79.56126 -4.960369,-5.65161 -5.536974,-12.03384 -3.099742,-18.59873 z M 151.37303,36.680844 356.47574,-90.927142 342.52669,-65.612199 c 0,0 -101.42456,90.019765 -144.18074,137.688464 C 170.49613,152.80906 154.35972,184.81314 147.98897,186.64233 127.3344,150.91931 135.95054,117.65326 155.7644,73.36168 155.66041,61.047864 151.37303,36.680844 151.37303,36.680844 Z M 5.1143905,151.97048 C 11.109772,8.7595592 84.847711,-36.842915 111.44663,-52.620378 c 8.50798,28.23492 -1.87179,74.04994 -2.96047,118.364833 -46.147295,47.190345 -39.799584,90.222325 -39.799584,90.222325 -16.245542,-3.041 -43.224158,-9.71063 -63.5721855,-3.9963 z"
         sodipodi:nodetypes="ccccccccccssscccccccccccccccsccccccccccccccccscccscccccccccccccccccccccccccccc" /><path
         id="path120"
         style="opacity:1;fill:#ff9b00;fill-opacity:1;stroke-width:0.264583"
         d="M 5.1143905,151.97048 C 11.109772,8.7595592 84.847711,-36.842915 111.44663,-52.620378 c 8.50798,28.23492 -1.87179,74.04994 -2.96047,118.364833 -46.147295,47.190345 -39.799584,90.222325 -39.799584,90.222325 -16.245542,-3.041 -43.224158,-9.71063 -63.5721855,-3.9963 z"
         sodipodi:nodetypes="ccccc"
         inkscape:label="ALA" /><path
         id="path121"
         style="display:inline;opacity:1;fill:#ff9b00;fill-opacity:1;stroke-width:0.264583"
         d="m 151.37303,36.680844 205.10271,-127.607986 -13.94905,25.314943 c 0,0 -101.42456,90.019765 -144.18074,137.688464 -27.84982,80.732795 -33.44084,88.704995 -48.87737,115.940895 -25.33644,-61.03946 -13.51804,-70.3639 6.29582,-114.65548 -0.10399,-12.313816 -4.39137,-36.680836 -4.39137,-36.680836 z"
         sodipodi:nodetypes="ccccccc"
         inkscape:label="ALA" /><path
         id="path123"
         style="opacity:1;fill:#ff9b00;fill-opacity:1;stroke-width:0.264583"
         d="m 243.33344,251.08291 c 101.12115,-13.19786 76.68256,2.56543 203.55282,-22.21515 1.55956,4.18116 1.50211,6.46109 0.90659,13.97354 -11.50193,6.33068 -101.88797,26.09342 -161.8044,27.50785 -2.05369,6.58074 121.51128,18.42708 121.51128,18.42708 0,0 0.99242,3.78171 -4.01052,13.4532 -76.82828,-3.70887 -123.21778,-22.44311 -153.95619,-23.76505 z"
         sodipodi:nodetypes="cccccccc"
         inkscape:label="COLA" /><path
         style="display:inline;opacity:1;fill:#ff9b00;fill-opacity:1;stroke:#ff9b00;stroke-width:4.76499;stroke-dasharray:none;stroke-opacity:1"
         d="m -18.99631,159.18812 c 10.6911881,7.66344 20.6913272,16.67882 21.5110866,21.68836 1.5640509,9.55789 -0.2417749,17.05499 -3.28972388,24.00559 13.08857728,20.99951 7.91169058,20.39528 9.88182668,31.06624 2.8727786,-0.8208 1.4215616,-15.83665 -1.9778865,-24.19175 22.3430621,3.80694 28.3642601,-24.16268 8.3029481,-21.63693 -2.899344,0.36503 -6.3434789,1.36703 -10.36187,3.19397 C 6.6315409,188.63102 4.8612111,178.60374 3.1403071,178.3579 0.08066725,172.89593 -0.32943813,167.25129 -18.99631,159.18812 Z"
         id="path124"
         sodipodi:nodetypes="cscccsccc"
         inkscape:label="OJO" /><path
         style="display:inline;opacity:1;fill:#ff9b00;fill-opacity:1;stroke:#ff9b00;stroke-width:4.76499;stroke-dasharray:none;stroke-opacity:1"
         d="m 55.537888,153.69788 c 8.713186,11.99919 8.062497,28.47267 16.532209,43.39705 4.793326,8.44626 18.118855,13.72257 31.256203,12.91578 8.2524,-0.5068 21.84982,-5.58429 20.40695,-13.43242 -2.91471,-15.85375 -17.40629,-22.12736 -28.414736,-30.73957 -14.329485,-4.26614 -26.744463,-11.10801 -39.780626,-12.14084 z"
         id="path139"
         sodipodi:nodetypes="cssscc"
         inkscape:label="MANCHA" /><path
         style="display:inline;opacity:1;fill:#ff9b00;fill-opacity:1;stroke:#ff9b00;stroke-width:4.76499;stroke-dasharray:none;stroke-opacity:1"
         d="m -45.794859,176.04868 c -4.416692,6.98663 -5.144458,13.52487 -0.824644,18.81273 l -34.491644,-7.8408 z"
         id="path140"
         sodipodi:nodetypes="cccc"
         inkscape:label="PICO" /></g></g></svg>
